<?xml version="1.0" encoding="utf-8"?>
<svg version="1.1" xmlns="http://www.w3.org/2000/svg" xmlns:xlink="http://www.w3.org/1999/xlink" x="0px" y="0px"
	 viewBox="-187 278.3 236.7 236.7" style="enable-background:new -187 278.3 236.7 236.7;" xml:space="preserve">
<style type="text/css">
	.st0{fill:#FFFFFF;}
	.st1{opacity:0.1;enable-background:new    ;}
	.st2{fill:none;stroke:#FFFFFF;stroke-miterlimit:10; opacity:0.5;}
	#o1 {
	  stroke-dasharray: 432;
	  stroke-dashoffset: 432;
	  -webkit-animation: draw 3s 1 linear forwards, hide 0.5s 1 4s linear forwards;
	          animation: draw 3s 1 linear forwards, hide 0.5s 1 4s linear forwards;
	}
	#o2 {
	  stroke-dasharray: 693;
	  stroke-dashoffset: 693;
	  -webkit-animation: draw 3s 1 linear forwards, hide 0.5s 1 4s linear forwards;
	          animation: draw 3s 1 linear forwards, hide 0.5s 1 4s linear forwards;
	}
	#mw_shadow{
	    opacity:0;
	    -webkit-animation: reveal 1s 1 3s linear forwards;
	            animation: reveal 1s 1 3s linear forwards;
	}
	@-webkit-keyframes draw {
	  to {
	    stroke-dashoffset: 0;
	  }
	}
	@keyframes draw {
	  to {
	    stroke-dashoffset: 0;
	  }
	}
	@-webkit-keyframes reveal {
	  to {
	    opacity: 1;
	  }
	}
	@keyframes reveal {
	  to {
	    opacity: 1;
	  }
	}
	@-webkit-keyframes hide {
	  to {
	    stroke-width: 0;
	  }
	}
	@keyframes hide {
	  to {
	    stroke-width: 0;
	  }
	}

</style>
<g id="mw_shadow">
	<path class="st0" d="M-115.5,386.8c-1.8,2.2-1.8,5.8,0,8l6.9,8.5c1.8,2.2,4.7,2.2,6.5,0l20.9-25.8c1.8-2.2,3.2-1.4,3.2,1.7l0,67.8
		c0,3.1,2,5.7,4.5,5.7h9.8c2.5,0,6-1.8,7.8-4l34.1-42.3c1.8-2.2,1.8-5.8,0-8l-6.9-8.5c-1.8-2.2-4.7-2.2-6.5,0l-20.7,25.6
		c-1.8,2.2-3.2,1.4-3.2-1.7v-67.6c0-3.1-2-5.7-4.5-5.7h-9.8c-2.5,0-6,1.8-7.8,4L-115.5,386.8z"/>
	<path class="st0" d="M-4.1,369.3c0-2.5,2-4.5,4.5-4.5h12.3c2.5,0,4.5,2,4.5,4.5v79c0,2.5-2,4.5-4.5,4.5H0.5c-2.5,0-4.5-2-4.5-4.5
		V369.3z"/>
	<path class="st0" d="M-154.6,344.9c0-2.4,2-4.4,4.5-4.4h11.3c2.5,0,4.5,2,4.5,4.4v77.3c0,2.4-2,4.4-4.5,4.4H-150
		c-2.5,0-4.5-2-4.5-4.4V344.9z"/>
	<path class="st1" d="M-41.8,412.4l7.4,9.7l2.9-3.6l-4.7-6c-1.8-2.2-5.3-4-7.8-4h-3.9C-45.6,409-43.2,410.6-41.8,412.4z"/>
	<polygon class="st1" points="-134.2,384.2 -134.2,370.6 -154.6,345.4 	"/>
	<path class="st1" d="M-95.4,380.8l-7.4-9.7l-2.9,3.6l4.7,6c1.8,2.2,5.3,4,7.8,4h3.9C-91.6,384.2-94.1,382.6-95.4,380.8z"/>
	<path class="st0" d="M-28.5,388.8c-1.7-2.3-5.2-4.1-7.7-4.1H-93c-2.5,0-6-1.8-7.8-4l-28.7-36.1c-1.8-2.2-5.3-4-7.8-4
		c0,0-5.1-0.1-7.8,0.2c-5.4,0.7-10.2,2.5-9.1,3.9l45.6,59.7c1.8,2.2,5.3,4,7.8,4H-44c2.5,0,6,1.8,7.8,4l28.8,36.2
		c1.8,2.2,5.3,4,7.8,4c0,0,18.1-2.5,16.4-4.8L-28.5,388.8z"/>
	<path class="st1" d="M-81.8,408.5h3.7l0,0v-23.8v0h-3.7c0,0,1.8,7.3,1.8,11.9C-79.9,401.2-81.8,408.5-81.8,408.5z"/>
	<polygon class="st1" points="-4.1,407.2 -4.1,420.8 16.3,446 	"/>
	<path class="st1" d="M-55.3,384.7H-59v0v23.8l0,0h3.7c0,0-1.8-7.3-1.8-11.9C-57.2,392-55.3,384.7-55.3,384.7z"/>
</g>
<g id="outline">
	<path id="o1" class="st2" d="M-115.5,386.8c-1.8,2.2-1.8,5.8,0,8l6.3,8.5c1.8,2.2,5.3,2.2,7,0l20.9-25.8c1.8-2.2,3.2-1.4,3.2,1.7l0,67.8
		c0,3.1,2,5.7,4.5,5.7h9.8c2.5,0,6-1.8,7.8-4l34.1-42.3c1.8-2.2,2-6.4,0.3-8.6l-6.9-9.1c-1.8-2.2-4.9-1-6.7,1.2l-20.7,25.6
		c-1.8,2.2-3.2,1.4-3.2-1.7v-67.6c0-3.1-2-5.7-4.5-5.7h-9.8c-2.5,0-6,1.8-7.8,4L-115.5,386.8z"/>
	<path id="o2" class="st2" d="M12.7,364.8H0.5c-2.5,0-4.5,2-4.5,4.5v51.5l-24.4-32c-1.7-2.3-5.2-4.1-7.7-4.1H-93c-2.5,0-6-1.8-7.8-4
		l-28.7-36.1c-1.8-2.2-5.3-4-7.8-4c0,0-1.9,0-4,0h-8.9c-2.5,0-4.5,2-4.5,4.4v77.3c0,2.4,2,4.4,4.5,4.4h11.3c2.5,0,4.5-2,4.5-4.4
		v-51.6l25.9,33.9c1.8,2.2,5.3,4,7.8,4H-44c2.5,0,6,1.8,7.8,4l28.8,36.2c1.8,2.2,5.3,4,7.8,4c0,0,0,0,0.1,0c0,0,0.1,0,0.1,0h12.3
		c2.5,0,4.5-2,4.5-4.5v-79C17.3,366.9,15.2,364.8,12.7,364.8z"/>
</g>
</svg>
