<svg version="1.1" id="Layer_1" xmlns="http://www.w3.org/2000/svg" xmlns:xlink="http://www.w3.org/1999/xlink" x="0px" y="0px"
	 width="236.667px" height="236.667px" viewBox="0 0 236.667 236.667" enable-background="new 0 0 236.667 236.667"
	 xml:space="preserve">
<path fill="#FFFFFF" d="M71.482,108.498c-1.785,2.205-1.785,5.813,0,8.017l6.864,8.475c1.784,2.205,4.706,2.205,6.491,0
	l20.863-25.759c1.785-2.205,3.246-1.434,3.246,1.715l-0.001,67.791c0,3.146,2.048,5.723,4.548,5.723h9.793
	c2.502,0,6.006-1.807,7.789-4.016l34.113-42.268c1.781-2.209,1.779-5.82-0.006-8.023l-6.863-8.475c-1.786-2.204-4.707-2.204-6.492,0
	l-20.748,25.618c-1.785,2.203-3.245,1.432-3.245-1.715V67.932c0-3.146-2.047-5.723-4.548-5.723h-9.769
	c-2.501,0-6.008,1.805-7.794,4.009L71.482,108.498z"/>
<path fill="#FFFFFF" d="M182.918,90.984c0-2.465,2.047-4.483,4.547-4.483h12.277c2.5,0,4.547,2.019,4.547,4.483v78.988
	c0,2.467-2.047,4.484-4.547,4.484h-12.277c-2.5,0-4.547-2.018-4.547-4.484V90.984z"/>
<path fill="#FFFFFF" d="M32.432,66.595c0-2.411,2.047-4.386,4.547-4.386H48.23c2.502,0,4.549,1.975,4.549,4.386v77.268
	c0,2.412-2.047,4.387-4.549,4.387H36.979c-2.5,0-4.547-1.975-4.547-4.387V66.595z"/>
<path opacity="0.1" d="M145.237,134.046l7.388,9.693l2.861-3.58l-4.729-5.955c-1.768-2.227-5.261-4.047-7.762-4.047h-3.854
	C141.361,130.707,143.849,132.246,145.237,134.046z"/>
<polygon opacity="0.1" points="52.779,105.9 52.779,92.265 32.432,67.102 "/>
<path opacity="0.1" d="M91.555,102.497l-7.389-9.692l-2.861,3.58l4.729,5.954c1.768,2.227,5.26,4.048,7.762,4.048h3.854
	C95.43,105.836,92.942,104.299,91.555,102.497z"/>
<path fill="#FFFFFF" d="M158.533,110.496c-1.742-2.26-5.213-4.109-7.713-4.109H94.043c-2.5,0-5.994-1.821-7.762-4.048l-28.65-36.082
	c-1.77-2.226-5.262-4.048-7.763-4.048c0,0-5.103-0.129-7.8,0.242c-5.391,0.744-10.247,2.453-9.066,3.935l45.646,59.729
	c1.771,2.223,5.266,4.043,7.766,4.043h56.582c2.501,0,5.994,1.82,7.762,4.047l28.75,36.205c1.768,2.227,5.26,4.049,7.762,4.049
	c0,0,18.119-2.516,16.379-4.775L158.533,110.496z"/>
<path opacity="0.1" d="M105.242,130.158h3.676l0,0v-23.77v-0.001h-3.676c0,0,1.838,7.262,1.838,11.886
	C107.08,122.896,105.242,130.158,105.242,130.158z"/>
<polygon opacity="0.1" points="182.918,128.849 182.918,142.486 203.266,167.648 "/>
<path opacity="0.1" d="M131.67,106.387h-3.676v0.001v23.77l0,0h3.676c0,0-1.838-7.262-1.838-11.885
	C129.832,113.648,131.67,106.387,131.67,106.387z"/>
</svg>
